# xmcd
#
# Track frame offsets: 
#        150
#        16441
#        28390
#        42651
#        57764
#
# Disc length: 938 seconds
#
# Revision: 0
# Processed by: cddbd v1.5.1PL0 Copyright (c) Steve Scherf et al.
# Submitted via: ExactAudioCopy v0.95a5
#
DISCID=4103a805
DTITLE=Sheri Copeland - Sheri Copeland
DYEAR=2003
DGENRE=Country
TTITLE0=Tough All Over
TTITLE1=Reasons
TTITLE2=She Had Me
TTITLE3=Yesterday's Gone 
TTITLE4=Still On Fire
EXTD=
EXTT0=
EXTT1=
EXTT2=
EXTT3=
EXTT4=
PLAYORDER=
